<svg width="24" height="24" viewBox="0 0 24 24" fill="none" xmlns="http://www.w3.org/2000/svg">
<path fill-rule="evenodd" clip-rule="evenodd" d="M12 1C16.4183 1 20 4.58172 20 9C20 11.8737 17.4619 16.3855 12.3856 22.5355C12.3654 22.56 12.3428 22.5826 12.3183 22.6028C12.1053 22.7787 11.7901 22.7485 11.6143 22.5355C6.53811 16.3855 4 11.8736 4 9C4 4.58172 7.58172 1 12 1ZM12 2.1C8.18924 2.1 5.1 5.18924 5.1 9C5.1 11.3664 7.23561 15.3171 11.5318 20.69L12 21.269L12.1648 21.0672C16.5616 15.6283 18.7972 11.6077 18.8965 9.16767L18.9 9C18.9 5.18924 15.8108 2.1 12 2.1ZM12 5.5C13.933 5.5 15.5 7.067 15.5 9C15.5 10.933 13.933 12.5 12 12.5C10.067 12.5 8.5 10.933 8.5 9C8.5 7.067 10.067 5.5 12 5.5ZM12 6.6C10.6745 6.6 9.6 7.67452 9.6 9C9.6 10.3255 10.6745 11.4 12 11.4C13.3255 11.4 14.4 10.3255 14.4 9C14.4 7.67452 13.3255 6.6 12 6.6Z" fill="#00754A"/>
</svg>
