<svg width="30" height="30" viewBox="0 0 30 30" fill="none" xmlns="http://www.w3.org/2000/svg">
<path fill-rule="evenodd" clip-rule="evenodd" d="M24.4919 16.4187H22.7444C22.3981 16.4187 22.1194 16.1387 22.1194 15.7937C22.1194 15.4487 22.3981 15.1687 22.7444 15.1687H24.4919C24.8369 15.1687 25.1169 15.4487 25.1169 15.7937C25.1169 16.1387 24.8369 16.4187 24.4919 16.4187ZM13.5019 16.4187H5.03063C4.68438 16.4187 4.40563 16.1387 4.40563 15.7937C4.40563 15.4487 4.68438 15.1687 5.03063 15.1687H13.5019C13.8469 15.1687 14.1269 15.4487 14.1269 15.7937C14.1269 16.1387 13.8469 16.4187 13.5019 16.4187ZM26.2806 22.7049H3.72188C2.90688 22.7049 2.24438 22.0474 2.24438 21.2374V11.6274H27.7556V21.2374C27.7556 22.0474 27.0944 22.7049 26.2806 22.7049ZM3.72188 7.29492H26.2806C27.0944 7.29492 27.7556 7.95367 27.7556 8.76242V9.12742H2.24438V8.76242C2.24438 7.95367 2.90688 7.29492 3.72188 7.29492ZM26.2806 6.04492H3.72188C2.21813 6.04492 0.994385 7.26492 0.994385 8.76242V21.2374C0.994385 22.7362 2.21813 23.9549 3.72188 23.9549H26.2806C27.7831 23.9549 29.0056 22.7362 29.0056 21.2374V8.76242C29.0056 7.26492 27.7831 6.04492 26.2806 6.04492Z" fill="#00754A"/>
<mask id="mask0_1164_14483" style="mask-type:alpha" maskUnits="userSpaceOnUse" x="0" y="6" width="30" height="18">
<path fill-rule="evenodd" clip-rule="evenodd" d="M24.4919 16.4187H22.7444C22.3981 16.4187 22.1194 16.1387 22.1194 15.7937C22.1194 15.4487 22.3981 15.1687 22.7444 15.1687H24.4919C24.8369 15.1687 25.1169 15.4487 25.1169 15.7937C25.1169 16.1387 24.8369 16.4187 24.4919 16.4187ZM13.5019 16.4187H5.03063C4.68438 16.4187 4.40563 16.1387 4.40563 15.7937C4.40563 15.4487 4.68438 15.1687 5.03063 15.1687H13.5019C13.8469 15.1687 14.1269 15.4487 14.1269 15.7937C14.1269 16.1387 13.8469 16.4187 13.5019 16.4187ZM26.2806 22.7049H3.72188C2.90688 22.7049 2.24438 22.0474 2.24438 21.2374V11.6274H27.7556V21.2374C27.7556 22.0474 27.0944 22.7049 26.2806 22.7049ZM3.72188 7.29492H26.2806C27.0944 7.29492 27.7556 7.95367 27.7556 8.76242V9.12742H2.24438V8.76242C2.24438 7.95367 2.90688 7.29492 3.72188 7.29492ZM26.2806 6.04492H3.72188C2.21813 6.04492 0.994385 7.26492 0.994385 8.76242V21.2374C0.994385 22.7362 2.21813 23.9549 3.72188 23.9549H26.2806C27.7831 23.9549 29.0056 22.7362 29.0056 21.2374V8.76242C29.0056 7.26492 27.7831 6.04492 26.2806 6.04492Z" fill="white"/>
</mask>
<g mask="url(#mask0_1164_14483)">
</g>
</svg>
