<svg width="26" height="26" viewBox="0 0 26 26" fill="none" xmlns="http://www.w3.org/2000/svg">
<path fill-rule="evenodd" clip-rule="evenodd" d="M20.0043 17.4113C19.691 17.8142 19.7517 18.4044 20.1401 18.7296C20.5285 19.0547 21.0974 18.9917 21.4108 18.5887L25.2996 13.5887C25.5668 13.2452 25.5668 12.7548 25.2996 12.4113L21.4108 7.41127C21.0974 7.00833 20.5285 6.94526 20.1401 7.27041C19.7517 7.59555 19.691 8.18579 20.0043 8.58873L22.7061 12.0625L9.23494 12.0625C8.73589 12.0625 8.33133 12.4822 8.33132 13C8.33132 13.5178 8.73589 13.9375 9.23494 13.9375L22.7061 13.9375L20.0043 17.4113ZM15.259 16.75L15.259 22.0625C15.259 22.7925 14.4543 23.6098 13.7071 23.6203L3.81325 23.6202C3.17415 23.6202 2.30723 22.5854 2.30723 21.75L2.30723 3.9375C2.30723 3.08991 3.01978 2.375 3.81325 2.375L13.753 2.375C14.5419 2.375 15.259 3.07559 15.259 3.9375L15.259 9.25C15.259 9.76777 15.6636 10.1875 16.1627 10.1875C16.6617 10.1875 17.0663 9.76777 17.0663 9.25L17.0663 3.9375C17.0663 2.01399 15.5165 0.5 13.753 0.499999L3.81325 0.499999C2.03497 0.499999 0.500002 2.04005 0.500002 3.9375L0.500001 21.75C0.500001 23.567 2.11531 25.4952 3.81325 25.4952L13.7194 25.4952C15.4535 25.4709 17.0663 23.833 17.0663 22.0625L17.0663 16.75C17.0663 16.2322 16.6617 15.8125 16.1627 15.8125C15.6636 15.8125 15.259 16.2322 15.259 16.75Z" fill="#D62B1F"/>
</svg>
