<svg width="25" height="27" viewBox="0 0 25 27" fill="none" xmlns="http://www.w3.org/2000/svg">
<path fill-rule="evenodd" clip-rule="evenodd" d="M18.1689 22.4537H21.3504V19.2033H18.1689V22.4537ZM21.9796 17.8563H17.5384C17.191 17.8563 16.9091 18.1581 16.9091 18.5299V23.1273C16.9091 23.4991 17.191 23.8009 17.5384 23.8009H21.9796C22.327 23.8009 22.6089 23.4991 22.6089 23.1273V18.5299C22.6089 18.1581 22.327 17.8563 21.9796 17.8563ZM3.82075 22.4537H7.0035V19.2033H3.82075V22.4537ZM7.63275 17.8563H3.1915C2.84415 17.8563 2.56225 18.1581 2.56225 18.5299V23.1273C2.56225 23.4991 2.84415 23.8009 3.1915 23.8009H7.63275C7.9801 23.8009 8.262 23.4991 8.262 23.1273V18.5299C8.262 18.1581 7.9801 17.8563 7.63275 17.8563ZM10.9942 22.4537H14.177V19.2033H10.9942V22.4537ZM14.8063 17.8563H10.365C10.0177 17.8563 9.73575 18.1581 9.73575 18.5299V23.1273C9.73575 23.4991 10.0177 23.8009 10.365 23.8009H14.8063C15.1536 23.8009 15.4355 23.4991 15.4355 23.1273V18.5299C15.4355 18.1581 15.1536 17.8563 14.8063 17.8563ZM18.1689 15.2053H21.3504V11.955H18.1689V15.2053ZM21.9796 10.608H17.5384C17.191 10.608 16.9091 10.9097 16.9091 11.2815V15.879C16.9091 16.2507 17.191 16.5525 17.5384 16.5525H21.9796C22.327 16.5525 22.6089 16.2507 22.6089 15.879V11.2815C22.6089 10.9097 22.327 10.608 21.9796 10.608ZM3.82075 15.2053H7.0035V11.955H3.82075V15.2053ZM7.63275 10.608H3.1915C2.84415 10.608 2.56225 10.9097 2.56225 11.2815V15.879C2.56225 16.2507 2.84415 16.5525 3.1915 16.5525H7.63275C7.9801 16.5525 8.262 16.2507 8.262 15.879V11.2815C8.262 10.9097 7.9801 10.608 7.63275 10.608ZM10.9942 15.2053H14.177V11.955H10.9942V15.2053ZM14.8063 10.608H10.365C10.0177 10.608 9.73575 10.9097 9.73575 11.2815V15.879C9.73575 16.2507 10.0177 16.5525 10.365 16.5525H14.8063C15.1536 16.5525 15.4355 16.2507 15.4355 15.879V11.2815C15.4355 10.9097 15.1536 10.608 14.8063 10.608ZM23.7415 25.4591H1.2585V8.57663H22.8329C23.1815 8.57663 23.4621 8.27489 23.4621 7.90311C23.4621 7.52998 23.1815 7.22959 22.8329 7.22959H1.2585V4.91672C1.2585 4.37791 1.71156 4.17585 1.99598 4.17585H23.004C23.5452 4.17585 23.7415 4.61903 23.7415 4.91672V25.4591ZM23.004 2.82878H20.6871V0.67352C20.6871 0.301737 20.4052 0 20.0579 0C19.7105 0 19.4286 0.301737 19.4286 0.67352V2.82878H4.24742V0.67352C4.24742 0.301737 3.96678 0 3.61817 0C3.27083 0 2.98893 0.301737 2.98893 0.67352V2.82878H1.99597C1.01561 2.82878 0 3.61007 0 4.91669V26.1326C0 26.5057 0.281903 26.8061 0.629247 26.8061H24.3708C24.7181 26.8061 25 26.5057 25 26.1326V4.91669C25 3.89025 24.2525 2.82878 23.004 2.82878Z" fill="#00754A"/>
</svg>
