<svg width="20" height="27" viewBox="0 0 20 27" fill="#421E12" xmlns="http://www.w3.org/2000/svg">
<path fill-rule="evenodd" clip-rule="evenodd" d="M17.1874 6.52513H2.81239H2.15489L2.31864 5.62638L2.34239 5.57888C2.40739 5.44138 2.60614 5.02263 2.65614 4.96263L4.05614 4.96138C4.05864 4.96138 4.05989 4.96263 4.06239 4.96263C4.06614 4.96263 4.07114 4.96138 4.07489 4.96138L17.4174 4.94388C17.4249 4.94888 17.5961 5.06388 17.8224 5.72013L17.9024 6.52513H17.1874ZM15.3124 24.8064C15.3124 25.0426 15.0024 25.2751 14.6874 25.2751H5.31239C4.99739 25.2751 4.68739 25.0426 4.68614 24.7626L3.48364 7.77513H16.5161L15.3124 24.8064ZM19.0598 5.52513C19.0548 5.48013 19.0448 5.43388 19.0299 5.39013C18.8924 4.97513 18.4711 3.71263 17.4998 3.71263H8.52234L14.0286 2.13763C14.2698 2.09138 14.5186 2.14263 14.6786 2.27388C14.7898 2.36513 14.8436 2.47763 14.8436 2.61888C14.8436 2.96388 15.1236 3.24388 15.4686 3.24388C15.8136 3.24388 16.0936 2.96388 16.0936 2.61888C16.0936 2.10138 15.8723 1.63638 15.4711 1.30763C15.0211 0.938879 14.3899 0.788879 13.7348 0.923879L3.97359 3.71263H2.65609C1.84609 3.71263 1.43359 4.57638 1.15984 5.15138C1.13359 5.20513 1.11484 5.26138 1.10359 5.32013L0.791088 7.03888C0.757338 7.22138 0.807338 7.40888 0.926088 7.55013C1.04484 7.69263 1.22109 7.77513 1.40609 7.77513H2.22984L3.43734 24.8064C3.43734 25.7376 4.29609 26.5251 5.31234 26.5251H14.6874C15.7036 26.5251 16.5623 25.7376 16.5611 24.8501L17.7698 7.77513H18.5936C18.7698 7.77513 18.9386 7.70013 19.0574 7.56888C19.1748 7.43888 19.2336 7.26388 19.2161 7.08763L19.0598 5.52513ZM10.1561 12.4626C11.5349 12.4626 12.6561 13.5839 12.6561 14.9626C12.6561 16.3414 11.5349 17.4626 10.1561 17.4626C8.77739 17.4626 7.65614 16.3414 7.65614 14.9626C7.65614 13.5839 8.77739 12.4626 10.1561 12.4626ZM10.1561 18.7126C12.2236 18.7126 13.9061 17.0301 13.9061 14.9626C13.9061 12.8951 12.2236 11.2126 10.1561 11.2126C8.08864 11.2126 6.40614 12.8951 6.40614 14.9626C6.40614 17.0301 8.08864 18.7126 10.1561 18.7126Z" fill="#00754A"/>
</svg>
