<svg width="24" height="24" viewBox="0 0 24 24" fill="none" xmlns="http://www.w3.org/2000/svg">
<path fill-rule="evenodd" clip-rule="evenodd" d="M13.7655 15.5412L17.449 11.6755C17.9276 11.1731 17.7606 10.8077 17.0762 10.8591L11.8071 11.2556L9.33693 6.40657C9.17654 6.0914 8.99943 5.94581 8.84314 5.96468C8.84314 5.96468 8.60793 5.9744 8.48261 6.49951C8.35728 7.02461 8.156 7.90394 8.156 7.90394L7.26907 11.8036L2.059 12.6723C1.38195 12.7853 1.30987 13.1796 1.89778 13.5532L6.42284 16.4278L5.67285 21.8137C5.57555 22.5135 5.91775 22.7106 6.43761 22.2538L10.4379 18.7378L15.1844 21.1976C15.8012 21.5172 16.085 21.2445 15.8182 20.5887L13.7655 15.5412Z" fill="#00754A"/>
<path fill-rule="evenodd" clip-rule="evenodd" d="M19.5632 7.14273L22.2532 5.87399C22.6027 5.70908 22.578 5.49754 22.1982 5.40143L19.2741 4.66194L18.8094 1.80975C18.7793 1.6244 18.7096 1.52046 18.6216 1.50207C18.6216 1.50207 18.4925 1.46508 18.3301 1.7041C18.1678 1.94313 17.9005 2.34491 17.9005 2.34491L16.7186 4.12776L13.7415 3.63373C13.3546 3.56958 13.2446 3.75298 13.4957 4.04342L15.4283 6.27841L14.053 8.82519C13.8744 9.15612 14.0242 9.31508 14.3879 9.18017L17.1864 8.14178L19.3135 10.2098C19.59 10.4785 19.7927 10.3932 19.7663 10.0194L19.5632 7.14273Z" fill="#00754A"/>
</svg>
