<svg width="22" height="30" viewBox="0 0 22 30" fill="none" xmlns="http://www.w3.org/2000/svg">
<path d="M13.4134 12.5619L13.4839 12.5107L16.3457 10.4307C16.346 10.4305 16.3462 10.4303 16.3465 10.4301C16.3741 10.4095 16.3931 10.3793 16.3997 10.3453L16.8905 10.4407L16.3997 10.3453C16.4059 10.3134 16.4007 10.2803 16.3851 10.2519C16.3689 10.2294 16.3476 10.2109 16.323 10.198C16.2961 10.184 16.266 10.177 16.2357 10.1777L16.2233 10.178V10.1779H12.7171H12.7039L12.6908 10.1772C12.5911 10.1719 12.4949 10.1383 12.4136 10.0802C12.4135 10.0802 12.4135 10.0802 12.4135 10.0802L12.7042 9.67334C12.7004 9.67063 12.6974 9.6669 12.6957 9.66258L13.4134 12.5619ZM13.4134 12.5619L13.3644 12.6339M13.4134 12.5619L13.3644 12.6339M13.3644 12.6339C13.3053 12.7208 13.2736 12.8236 13.2736 12.9289C13.2736 12.9947 13.286 13.0596 13.3097 13.1202L14.3719 16.4129L14.3748 16.4218M13.3644 12.6339L14.3748 16.4218M14.3748 16.4218L14.378 16.4306M14.3748 16.4218L14.378 16.4306M14.378 16.4306C14.3894 16.462 14.3923 16.4959 14.3863 16.5287C14.3809 16.5579 14.3688 16.5853 14.3509 16.6087C14.3287 16.6292 14.3003 16.6419 14.27 16.6447C14.2364 16.6479 14.2027 16.6387 14.1754 16.6189L14.1747 16.6184M14.378 16.4306L14.1747 16.6184M14.1747 16.6184L11.2951 14.5366L11.2893 14.5325M14.1747 16.6184L11.2893 14.5325M11.2893 14.5325L11.2835 14.5285M11.2893 14.5325L11.2835 14.5285M11.2835 14.5285C11.1965 14.4693 11.0937 14.4376 10.9884 14.4376C10.8832 14.4376 10.7804 14.4692 10.6934 14.5285L10.6865 14.5331M11.2835 14.5285L10.6865 14.5331M10.6865 14.5331L10.6799 14.538M10.6865 14.5331L10.6799 14.538M10.6799 14.538L7.82892 16.6189C7.8288 16.619 7.82868 16.6191 7.82856 16.6192C7.80016 16.6396 7.76506 16.6486 7.73031 16.6443C7.69803 16.6403 7.66826 16.6251 7.64611 16.6016C7.6304 16.5793 7.61996 16.5537 7.61563 16.5268C7.61085 16.497 7.61371 16.4664 7.62395 16.438L7.62412 16.438M10.6799 14.538L7.62412 16.438M7.62412 16.438L7.62835 16.4252M7.62412 16.438L7.62835 16.4252M7.62835 16.4252L8.71803 13.1228C8.74246 13.0614 8.75519 12.9956 8.75519 12.9289C8.75519 12.8237 8.72356 12.7209 8.66436 12.6339L8.61537 12.5619M7.62835 16.4252L8.61537 12.5619M8.61537 12.5619L8.54492 12.5107M8.61537 12.5619L8.54492 12.5107M8.54492 12.5107L5.68102 10.4292C5.68097 10.4292 5.68092 10.4291 5.68087 10.4291C5.65252 10.4084 5.63306 10.3777 5.62641 10.3432C5.62007 10.3104 5.62583 10.2764 5.64253 10.2475C5.65888 10.2242 5.68058 10.2051 5.70583 10.1919C5.73271 10.1778 5.76275 10.1708 5.79309 10.1716L5.79309 10.1717M8.54492 12.5107L5.79309 10.1717M5.79309 10.1717H5.80544M5.79309 10.1717H5.80544M5.80544 10.1717H9.27808H9.29124M5.80544 10.1717H9.29124M9.29124 10.1717L9.30438 10.1711M9.29124 10.1717L9.30438 10.1711M9.30438 10.1711C9.40406 10.1658 9.50026 10.1322 9.5816 10.0741L9.58167 10.0741M9.30438 10.1711L9.58167 10.0741M9.58167 10.0741C9.66292 10.016 9.72595 9.93594 9.76328 9.84324L9.76965 9.82742M9.58167 10.0741L9.76965 9.82742M9.76965 9.82742L9.77493 9.8112M9.76965 9.82742L9.77493 9.8112M9.77493 9.8112L10.8692 6.44903L9.77493 9.8112ZM19.7841 0.75H19.7816H2.22276C1.76585 0.75 1.32766 0.931504 1.00458 1.25458C0.681504 1.57766 0.5 2.01585 0.5 2.47276L0.499976 27.5393L0.500024 27.5442C0.503149 27.8609 0.593498 28.1706 0.761147 28.4393C0.928793 28.7079 1.16725 28.9252 1.45032 29.0672C1.73339 29.2091 2.05012 29.2703 2.36571 29.2441C2.6813 29.2178 2.98353 29.105 3.23921 28.9181L3.23922 28.9182L3.24247 28.9157L10.5776 23.4633C10.5779 23.4631 10.5781 23.4629 10.5784 23.4627C10.7025 23.3714 10.8526 23.3221 11.0068 23.3221C11.1608 23.3221 11.3109 23.3713 11.435 23.4626C11.4353 23.4628 11.4356 23.4631 11.4359 23.4633L18.771 28.9157L18.7709 28.9158L18.7805 28.9226C19.0361 29.1035 19.3362 29.2113 19.6485 29.2344C19.9608 29.2575 20.2735 29.1951 20.5529 29.0538C20.8324 28.9125 21.0681 28.6977 21.2346 28.4326C21.4011 28.1674 21.4923 27.8618 21.4981 27.5487L21.4982 27.5487V27.5393V2.47276C21.4982 2.01735 21.3179 1.58046 20.9967 1.25763C20.6755 0.934793 20.2395 0.752283 19.7841 0.75Z" stroke="#00754A"/>
</svg>
